<svg xmlns="http://www.w3.org/2000/svg" width="300" height="300" viewBox="0 0 300 300" >
<g fill="#0067F6">
<path d="M1450 2907 c-3 -2 -28 -7 -55 -11 -248 -29 -485 -257 -541 -518 -3
-18 -9 -144 -11 -281 l-5 -247 36 -36 c32 -32 41 -36 73 -31 20 4 46 16 57 27
20 19 21 35 27 278 5 243 7 261 31 323 134 354 610 414 823 105 70 -103 78
-141 84 -428 6 -242 7 -259 27 -278 11 -11 36 -23 56 -26 30 -5 41 -1 69 24
l34 30 0 234 c0 262 -5 310 -39 402 -79 211 -283 385 -488 420 -57 10 -173 18
-178 13z m175 -41 c47 -7 166 -59 220 -96 59 -40 161 -143 170 -170 4 -11 10
-20 14 -20 16 0 71 -146 86 -225 10 -54 15 -144 15 -281 0 -185 -2 -203 -20
-226 -29 -37 -58 -41 -86 -13 -23 23 -24 30 -25 177 -1 195 -7 326 -15 358 -4
14 -8 31 -10 38 -7 35 -62 127 -105 175 -51 58 -139 116 -204 134 -91 26 -124
33 -153 33 -48 0 -172 -23 -172 -32 0 -4 -9 -8 -21 -8 -34 0 -137 -70 -189
-127 -107 -121 -130 -209 -130 -511 0 -211 0 -213 -24 -237 -27 -27 -53 -25
-85 9 -20 22 -21 31 -18 262 3 259 10 299 66 419 55 117 175 233 299 290 31
14 65 30 74 35 10 6 32 10 50 11 18 0 42 5 53 10 18 8 138 5 210 -5z"/>
<path d="M786 1589 c-120 -19 -231 -104 -285 -219 l-26 -55 0 -470 0 -470 27
-57 c31 -67 95 -140 153 -173 90 -53 115 -55 845 -55 806 0 789 -2 908 105 33
30 63 70 84 113 l33 67 0 470 0 470 -26 55 c-56 118 -163 199 -291 220 -78 12
-1346 12 -1422 -1z m1456 -37 c89 -23 190 -111 231 -200 22 -46 22 -57 22
-507 l0 -460 -27 -55 c-33 -67 -105 -142 -161 -169 -23 -11 -68 -24 -100 -29
-86 -13 -1316 -14 -1406 -1 -40 6 -90 20 -110 31 -57 31 -129 108 -159 168
l-27 55 0 455 c0 519 -1 513 84 603 61 65 122 100 201 113 83 13 1398 10 1452
-4z"/>
<path d="M775 1423 c-53 -18 -99 -58 -122 -105 -21 -42 -22 -57 -24 -468 -2
-407 -2 -427 18 -470 28 -63 80 -106 145 -120 38 -8 248 -10 738 -8 679 3 685
3 725 25 50 27 80 58 100 105 13 32 15 101 16 451 0 228 -3 427 -7 443 -17 66
-77 129 -144 150 -44 13 -1406 11 -1445 -3z m1466 -39 c21 -9 51 -35 66 -57
l28 -40 3 -433 c3 -420 2 -435 -18 -474 -11 -22 -39 -52 -62 -67 l-42 -28
-716 0 -716 0 -42 28 c-23 15 -51 45 -62 67 -19 37 -20 58 -20 460 0 335 3
427 14 453 18 42 65 86 108 100 25 9 220 12 728 10 630 -1 697 -3 731 -19z"/>
<path d="M1460 1121 c-53 -17 -91 -43 -114 -79 -52 -79 -42 -170 25 -234 40
-38 40 -38 37 -108 -2 -57 2 -75 19 -97 39 -54 114 -52 150 4 14 20 17 43 15
95 -3 68 -2 68 37 106 114 108 51 291 -109 316 -19 3 -46 1 -60 -3z m104 -45
c37 -15 73 -60 87 -108 11 -40 -4 -92 -36 -128 -36 -40 -46 -67 -48 -129 -2
-71 -26 -111 -66 -111 -44 0 -62 29 -68 112 -5 66 -9 78 -46 126 -51 67 -56
118 -16 178 45 67 120 91 193 60z"/>
</g>
</svg>
